<svg width="32" height="32" viewBox="0 0 32 32" xmlns="http://www.w3.org/2000/svg">
    <g fill="none" fill-rule="evenodd">
        <rect fill="#DFF6FF" width="31.36" height="31.36" rx="11.2"/>
        <g fill="#2891C1" fill-rule="nonzero">
            <path d="M23.085 21.421v-1.906H7.84v1.906h4.764v1.588h-1.27v.636h8.257v-.636h-1.27v-1.588zM7.84 8.4v10.48h15.245V8.4H7.84zm7.622 9.21c-4.298-1.828-3.792-6.05-3.792-6.05 2.78-.82 3.792-1.89 3.792-1.89s1.012 1.07 3.793 1.89c0 0 .506 4.222-3.793 6.05z"/>
            <path d="M15.462 11.65c-.52.323-1.234.693-2.177 1.045.137.909.617 2.245 2.177 3.145 1.564-.901 2.043-2.24 2.179-3.144a12.304 12.304 0 0 1-2.179-1.046z"/>
        </g>
    </g>
</svg>
