<svg width="32" height="32" viewBox="0 0 32 32" xmlns="http://www.w3.org/2000/svg">
    <g fill="none" fill-rule="evenodd">
        <rect fill="#DAFFE0" width="31.36" height="31.36" rx="11.2"/>
        <g fill="#0E8F2E" fill-rule="nonzero">
            <path d="M11.411 21.743h.32v-1.146h1.983v1.146h.32v-1.146h2.077v1.146h.32v-1.146h2.21v1.146h.32v-1.146h1.836v-.32H18.96v-2.075h1.837v-.32H18.96V15.99h1.837v-.32H18.96v-1.277h-.32v1.278h-2.208v-1.278h-.321v1.278h-2.077v-1.278h-.32v1.278h-1.983v-1.278h-.32v1.278H9.294v.319h2.117v1.892H9.294v.32h2.117v2.076H9.294v.32h2.117v1.145zm2.623-1.465v-2.076h2.076v2.076h-2.076zm4.607 0h-2.21v-2.076h2.21v2.076zm0-4.288v1.892h-2.21V15.99h2.21zm-2.53 0v1.892h-2.077V15.99h2.077zm-4.38 0h1.982v1.892h-1.982V15.99zm0 2.212h1.982v2.076h-1.982v-2.076z"/>
            <path d="m22.982 9.746-2.22.002-.324.001v1.316a.64.64 0 0 1-.639.639h-.746a.639.639 0 0 1-.639-.639V9.752h-.85v1.313a.64.64 0 0 1-.641.639h-.746a.64.64 0 0 1-.639-.639V9.753l-.904.002v1.311a.64.64 0 0 1-.64.638h-.746a.64.64 0 0 1-.639-.638V9.757h-.93v1.309a.64.64 0 0 1-.64.638h-.746a.64.64 0 0 1-.639-.638V9.76l-2.374.002v14.06h14.596l1.122-.003-.016-14.073zm-1.106 12.957H8.404v-8.982h13.472v8.982z"/>
            <path d="M10.293 11.25h.746a.16.16 0 0 0 .16-.159V8.855a.16.16 0 0 0-.16-.16h-.746a.16.16 0 0 0-.16.16v2.236c0 .088.072.16.16.16zM13.248 11.25h.747a.16.16 0 0 0 .16-.159V8.855a.16.16 0 0 0-.16-.16h-.748a.16.16 0 0 0-.159.16v2.236c0 .088.072.16.16.16zM16.177 11.25h.746a.16.16 0 0 0 .16-.159V8.855a.16.16 0 0 0-.16-.16h-.746a.16.16 0 0 0-.16.16v2.236c0 .088.072.16.16.16zM19.053 11.25h.746a.16.16 0 0 0 .16-.159V8.855a.159.159 0 0 0-.16-.16h-.746a.16.16 0 0 0-.16.16v2.236c0 .088.072.16.16.16z"/>
        </g>
    </g>
</svg>
