<svg width="32" height="32" viewBox="0 0 32 32" xmlns="http://www.w3.org/2000/svg">
    <g fill="none" fill-rule="evenodd">
        <rect fill="#DFCEFF" width="31.36" height="31.36" rx="11.2"/>
        <g fill="#6628C9" fill-rule="nonzero">
            <path d="M12.966 17.749a2.356 2.356 0 0 1-.732-.058l-4.015 4.014a.504.504 0 0 0 0 .714l1.039 1.039a.504.504 0 0 0 .713 0l4.825-4.824-.895-.965-.935.08zM23.531 11.317a.482.482 0 0 0-.682 0l-2.601 2.601a.63.63 0 0 1-.891-.89l2.588-2.588a.502.502 0 0 0-.709-.71l-2.588 2.589a.63.63 0 1 1-.89-.89l2.6-2.601a.482.482 0 1 0-.682-.683l-2.927 2.927a2.705 2.705 0 0 0-.698 2.591l1.962 1.962c.9.227 1.888.005 2.59-.699L23.532 12a.482.482 0 0 0 0-.683z"/>
            <path d="M9.315 8.41a.53.53 0 0 0-.853.144 4.624 4.624 0 0 0 .892 5.284l2.49 2.489a1.303 1.303 0 0 0 1.033.377l1.445-.123 6.303 6.8a.531.531 0 0 0 .38.17h.009a.534.534 0 0 0 .377-.156l1.08-1.08a.53.53 0 0 0 0-.75L9.315 8.409z"/>
        </g>
    </g>
</svg>
