<svg width="32" height="32" viewBox="0 0 32 32" xmlns="http://www.w3.org/2000/svg">
    <g fill="none" fill-rule="evenodd">
        <rect fill="#FFDDE4" width="31.36" height="31.36" rx="11.2"/>
        <g fill="#D1173A" fill-rule="nonzero">
            <path d="m8.894 12.71-.47-.856c-.496.272-.98.577-1.44.907l.57.794c.428-.307.879-.591 1.34-.844zM11.828 11.533l-.252-.945c-.546.146-1.09.327-1.614.538l.364.907c.489-.196.994-.365 1.502-.5zM21.521 11.605a14.135 14.135 0 0 0-1.566-.667l-.328.92a13.1 13.1 0 0 1 1.457.622l.437-.875zM25.581 14.667l-.72.66c.357.389.693.803 1 1.23l.795-.57c-.33-.46-.691-.904-1.075-1.32zM22.456 13.273c.438.291.864.612 1.265.955l.635-.744c-.43-.368-.888-.713-1.36-1.026l-.54.815zM4.48 15.06l.743.635c.342-.4.713-.784 1.1-1.14l-.66-.72c-.417.382-.815.795-1.183 1.225zM12.337 11.982h.49l.597-.903 1.915.014-.857 2.954c0 .086.07.156.156.156h.788l1.646-3.052 1.51.05c.43 0 .779-.33.779-.736 0-.406-.348-.735-.778-.735l-1.522.05-1.635-3.032h-.788a.157.157 0 0 0-.156.157l.85 2.933-1.919.017-.586-.886h-.49a.118.118 0 0 0-.119.118v2.778c0 .065.053.118.119.117zM17.143 15.71a8.763 8.763 0 0 0-1.944-.22 8.675 8.675 0 0 0-8.497 6.787 8.766 8.766 0 0 0-.212 2.303h.978a7.785 7.785 0 0 1 .186-2.085c.32.083 1.75.48 1.705.94-.038.387-.162.826-.059 1.145h.9c.123-.09.242-.133.359-.01l.01.01h7.102c-1.672-1.065-1.908-2.946-1.908-2.946-.118-.05.22-1.387-.306-1.547-.527-.16-.858-.032-1.604-.365-.746-.332-.467-.797-.344-1.906.052-.473.173-.897.326-1.23a7.856 7.856 0 0 1 3.091.077 7.696 7.696 0 0 1 4.837 3.428 7.691 7.691 0 0 1 1.187 4.35 4.675 4.675 0 0 1-.204.14h1.176a8.657 8.657 0 0 0-1.332-5.01 8.664 8.664 0 0 0-5.447-3.861z"/>
        </g>
    </g>
</svg>
