<svg width="32" height="32" viewBox="0 0 32 32" xmlns="http://www.w3.org/2000/svg">
    <g fill="none" fill-rule="evenodd">
        <rect width="31.36" height="31.36" rx="11.2" fill="#DBEBFF"/>
        <path d="M22.88 9.897v-.383c0-.21-.027-.677-.267-.901a.766.766 0 0 0-.544-.2h-1.35s-.72 0-.72.674v.719c0 .764-1.407.745-1.407.745l-5.798.003s-1.435-.032-1.435-.657v-.915s.046-.582-.72-.582H9.2s-.722 0-.722.627v.87s.026.374-.557.565c-.445.145-1.417.007-1.887.409-.244.208-.434.555-.434 1.134v10.124s.044 1.391 1.44 1.391h17.19s1.53-.09 1.53-1.346V11.96s-.047-1.391-1.486-1.391c0 0-1.395-.092-1.395-.673zm-2.161-.047c0-.396.279-.718.675-.718h.045a.72.72 0 0 1 .72.718v1.437a.7.7 0 0 1-.697.718h-.045a.7.7 0 0 1-.698-.718V9.85zm-2.466 7.183h3.6a.359.359 0 1 1 0 .719h-3.6a.36.36 0 0 1-.361-.36c0-.199.162-.359.36-.359zm3.937 1.84c0 .212-.17.337-.382.337h-3.51c-.211 0-.383-.125-.383-.336 0-.21.172-.382.383-.382h3.51c.211 0 .382.171.382.382zm-10.435-6.147c1.11 0 2.01.983 2.01 2.308 0 1.326-.9 2.402-2.01 2.402-1.11 0-2.01-1.076-2.01-2.402 0-1.325.9-2.308 2.01-2.308zM9.222 9.812c0-.396.277-.673.675-.673h.045c.398 0 .697.277.697.673v1.475a.72.72 0 0 1-.72.718h-.046c-.396 0-.651-.322-.651-.718V9.812zm6.296 10.653c-.177.252-.572.219-.572.219H8.63s-.426.028-.614-.23c-.101-.14-.03-.422.039-.58l.17-.386s.47-1.049 1.005-1.656c.328-.373.72-.288.972-.167.156.075.332.292.46.407.178.159.49.34 1.002.35h.314c.512-.01.825-.191 1.002-.35.128-.115.3-.339.454-.416.232-.116.585-.187.905.176.535.608.958 1.675.958 1.675l.174.38c.072.155.146.436.048.578zm6.37.16h-3.669a.349.349 0 0 1 0-.696h3.668a.348.348 0 1 1 0 .696z" fill="#0A7AFF" fill-rule="nonzero"/>
    </g>
</svg>
